<?xml version="1.0" encoding="UTF-8"?>
<svg width="300" height="300" viewBox="0 0 300 300" fill="none" xmlns="http://www.w3.org/2000/svg">
  <!-- Adire-inspired pattern (Nigerian traditional textile) -->
  <rect width="300" height="300" fill="#f8f8f8"/>
  
  <!-- Base pattern grid -->
  <g stroke="#008751" stroke-width="1.5" opacity="0.3">
    <path d="M0,30 L300,30" />
    <path d="M0,60 L300,60" />
    <path d="M0,90 L300,90" />
    <path d="M0,120 L300,120" />
    <path d="M0,150 L300,150" />
    <path d="M0,180 L300,180" />
    <path d="M0,210 L300,210" />
    <path d="M0,240 L300,240" />
    <path d="M0,270 L300,270" />
    
    <path d="M30,0 L30,300" />
    <path d="M60,0 L60,300" />
    <path d="M90,0 L90,300" />
    <path d="M120,0 L120,300" />
    <path d="M150,0 L150,300" />
    <path d="M180,0 L180,300" />
    <path d="M210,0 L210,300" />
    <path d="M240,0 L240,300" />
    <path d="M270,0 L270,300" />
  </g>
  
  <!-- Adire circular elements -->
  <g fill="#008751" opacity="0.4">
    <circle cx="30" cy="30" r="10" />
    <circle cx="90" cy="30" r="10" />
    <circle cx="150" cy="30" r="10" />
    <circle cx="210" cy="30" r="10" />
    <circle cx="270" cy="30" r="10" />
    
    <circle cx="60" cy="60" r="10" />
    <circle cx="120" cy="60" r="10" />
    <circle cx="180" cy="60" r="10" />
    <circle cx="240" cy="60" r="10" />
    
    <circle cx="30" cy="90" r="10" />
    <circle cx="90" cy="90" r="10" />
    <circle cx="150" cy="90" r="10" />
    <circle cx="210" cy="90" r="10" />
    <circle cx="270" cy="90" r="10" />
    
    <circle cx="60" cy="120" r="10" />
    <circle cx="120" cy="120" r="10" />
    <circle cx="180" cy="120" r="10" />
    <circle cx="240" cy="120" r="10" />
    
    <circle cx="30" cy="150" r="10" />
    <circle cx="90" cy="150" r="10" />
    <circle cx="150" cy="150" r="10" />
    <circle cx="210" cy="150" r="10" />
    <circle cx="270" cy="150" r="10" />
    
    <circle cx="60" cy="180" r="10" />
    <circle cx="120" cy="180" r="10" />
    <circle cx="180" cy="180" r="10" />
    <circle cx="240" cy="180" r="10" />
    
    <circle cx="30" cy="210" r="10" />
    <circle cx="90" cy="210" r="10" />
    <circle cx="150" cy="210" r="10" />
    <circle cx="210" cy="210" r="10" />
    <circle cx="270" cy="210" r="10" />
    
    <circle cx="60" cy="240" r="10" />
    <circle cx="120" cy="240" r="10" />
    <circle cx="180" cy="240" r="10" />
    <circle cx="240" cy="240" r="10" />
    
    <circle cx="30" cy="270" r="10" />
    <circle cx="90" cy="270" r="10" />
    <circle cx="150" cy="270" r="10" />
    <circle cx="210" cy="270" r="10" />
    <circle cx="270" cy="270" r="10" />
  </g>
  
  <!-- Adire wave patterns -->
  <g stroke="#D3A121" stroke-width="2" fill="none" opacity="0.5">
    <path d="M15,45 Q30,15 45,45 Q60,75 75,45 Q90,15 105,45" />
    <path d="M135,45 Q150,15 165,45 Q180,75 195,45 Q210,15 225,45" />
    
    <path d="M15,105 Q30,75 45,105 Q60,135 75,105 Q90,75 105,105" />
    <path d="M135,105 Q150,75 165,105 Q180,135 195,105 Q210,75 225,105" />
    
    <path d="M15,165 Q30,135 45,165 Q60,195 75,165 Q90,135 105,165" />
    <path d="M135,165 Q150,135 165,165 Q180,195 195,165 Q210,135 225,165" />
    
    <path d="M15,225 Q30,195 45,225 Q60,255 75,225 Q90,195 105,225" />
    <path d="M135,225 Q150,195 165,225 Q180,255 195,225 Q210,195 225,225" />
  </g>
  
  <!-- Adire triangular elements -->
  <g fill="#9B4F96" opacity="0.3">
    <path d="M45,15 L60,35 L30,35 Z" />
    <path d="M105,15 L120,35 L90,35 Z" />
    <path d="M165,15 L180,35 L150,35 Z" />
    <path d="M225,15 L240,35 L210,35 Z" />
    
    <path d="M75,75 L90,95 L60,95 Z" />
    <path d="M135,75 L150,95 L120,95 Z" />
    <path d="M195,75 L210,95 L180,95 Z" />
    <path d="M255,75 L270,95 L240,95 Z" />
    
    <path d="M45,135 L60,155 L30,155 Z" />
    <path d="M105,135 L120,155 L90,155 Z" />
    <path d="M165,135 L180,155 L150,155 Z" />
    <path d="M225,135 L240,155 L210,155 Z" />
    
    <path d="M75,195 L90,215 L60,215 Z" />
    <path d="M135,195 L150,215 L120,215 Z" />
    <path d="M195,195 L210,215 L180,215 Z" />
    <path d="M255,195 L270,215 L240,215 Z" />
    
    <path d="M45,255 L60,275 L30,275 Z" />
    <path d="M105,255 L120,275 L90,275 Z" />
    <path d="M165,255 L180,275 L150,275 Z" />
    <path d="M225,255 L240,275 L210,275 Z" />
  </g>
</svg>
